<?xml version="1.0" encoding="UTF-8" standalone="no"?>
<!-- Created with Inkscape (http://www.inkscape.org/) -->

<svg
   width="240"
   height="240"
   viewBox="0 0 63.500001 63.5"
   version="1.1"
   id="svg1"
   xml:space="preserve"
   inkscape:version="1.3.2 (091e20e, 2023-11-25, custom)"
   sodipodi:docname="User interface.svg"
   xmlns:inkscape="http://www.inkscape.org/namespaces/inkscape"
   xmlns:sodipodi="http://sodipodi.sourceforge.net/DTD/sodipodi-0.dtd"
   xmlns="http://www.w3.org/2000/svg"
   xmlns:svg="http://www.w3.org/2000/svg"><sodipodi:namedview
     id="namedview1"
     pagecolor="#000000"
     bordercolor="#666666"
     borderopacity="1.0"
     inkscape:showpageshadow="2"
     inkscape:pageopacity="0.0"
     inkscape:pagecheckerboard="0"
     inkscape:deskcolor="#d1d1d1"
     inkscape:document-units="px"
     inkscape:zoom="1.047619"
     inkscape:cx="420"
     inkscape:cy="120.27273"
     inkscape:current-layer="layer1"
     inkscape:window-width="1440"
     inkscape:window-height="830"
     inkscape:window-x="-6"
     inkscape:window-y="-6"
     inkscape:window-maximized="1" /><defs
     id="defs1"><clipPath
       clipPathUnits="userSpaceOnUse"
       id="clipEmfPath1"><path
         d="M 0,0 H 55.969764 V 100.97638 H 0 Z"
         id="path1" /></clipPath><clipPath
       clipPathUnits="userSpaceOnUse"
       id="clipEmfPath2"><path
         d="M 0.57700787,0.57700787 H 55.969764 V 100.97638 H 0.57700787 Z"
         id="path2" /></clipPath><clipPath
       clipPathUnits="userSpaceOnUse"
       id="clipEmfPath3"><path
         d="M 0.57617187,100.97656 V 0.57617187 H 55.970703 0.57617187 Z"
         id="path3" /></clipPath><pattern
       id="EMFhbasepattern"
       patternUnits="userSpaceOnUse"
       width="6"
       height="6"
       x="0"
       y="0" /></defs><g
     inkscape:label="Layer 1"
     inkscape:groupmode="layer"
     id="layer1"
     transform="translate(-13.877712,-188.30183)"><rect
       style="font-variation-settings:normal;opacity:1;fill:#000000;fill-opacity:1;stroke:none;stroke-width:0.529167;stroke-linecap:round;stroke-linejoin:round;stroke-miterlimit:4;stroke-dasharray:none;stroke-dashoffset:0;stroke-opacity:1"
       id="rect29"
       width="63.5"
       height="63.5"
       x="93.252716"
       y="188.30183" /><rect
       style="font-variation-settings:normal;opacity:1;fill:#000000;fill-opacity:1;stroke:none;stroke-width:0.529167;stroke-linecap:round;stroke-linejoin:round;stroke-miterlimit:4;stroke-dasharray:none;stroke-dashoffset:0;stroke-opacity:1"
       id="rect28"
       width="63.5"
       height="63.5"
       x="13.877712"
       y="188.30183" /><rect
       style="font-variation-settings:normal;opacity:1;fill:#000000;fill-opacity:1;stroke:none;stroke-width:0.529167;stroke-linecap:round;stroke-linejoin:round;stroke-miterlimit:4;stroke-dasharray:none;stroke-dashoffset:0;stroke-opacity:1"
       id="rect27"
       width="63.5"
       height="63.5"
       x="172.62772"
       y="188.30183" /><g
       id="g27"
       inkscape:export-filename="icon_moon.png"
       inkscape:export-xdpi="96"
       inkscape:export-ydpi="96"
       transform="translate(-6.6655785,-6.4763957)"><path
         id="path21"
         style="fill:#808080;stroke:none;stroke-width:0.475901"
         d="m 117.89684,209.86375 c -2.52609,-0.01 -2.28534,0.0721 -2.28534,1.47285 0,0.86315 0.0312,1.1202 0.14948,1.23899 0.12374,0.1237 0.41636,0.14971 1.68693,0.14971 h 1.53717 l -1.91649,1.93 c -1.58426,1.5955 -1.93422,1.99734 -2.01862,2.31669 -0.17241,0.65169 0.10844,1.3187 0.67221,1.59681 0.2768,0.13648 0.76198,0.15715 3.76541,0.15913 3.31247,0.006 3.4516,-0.01 3.54632,-0.18235 0.14127,-0.26436 0.12798,-2.3212 -0.0164,-2.46524 -0.0792,-0.0793 -0.59019,-0.1144 -1.68482,-0.1144 h -1.57063 l 1.95904,-1.97776 c 1.77804,-1.79504 1.96547,-2.01485 2.02621,-2.38086 0.12852,-0.77344 -0.29749,-1.42693 -1.07065,-1.64194 -0.21065,-0.0578 -1.63579,-0.0986 -3.51948,-0.0989 -0.4826,0 -0.89998,-0.006 -1.26088,-0.007 z m 9.00603,5.72092 c -2.34422,0 -2.24709,-0.0453 -2.24709,1.07153 0,1.00013 0.096,1.12064 0.8931,1.12064 h 0.57824 l -0.8441,0.8489 c -0.80103,0.80584 -0.84652,0.87382 -0.89027,1.33007 -0.0426,0.43863 -0.0211,0.50675 0.24384,0.77125 l 0.29011,0.29037 h 2.19352 c 2.54134,0 2.39065,0.0646 2.39065,-1.02107 0,-0.92246 -0.12582,-1.0759 -0.88386,-1.0759 h -0.58751 l 0.7727,-0.78632 c 0.42494,-0.4324 0.82044,-0.8799 0.87852,-0.99451 0.25705,-0.50611 0.01,-1.20184 -0.51629,-1.41953 -0.244,-0.10213 -0.80362,-0.13543 -2.27156,-0.13543 z m -5.91477,3.71713 c -1.50768,0 -2.13394,0.0314 -2.21604,0.11436 -0.16141,0.16179 -0.15451,1.73516 0.01,1.87051 0.067,0.0565 0.39131,0.11483 0.71973,0.13061 l 0.59707,0.0304 -0.76107,0.78115 c -0.88763,0.91083 -0.9639,1.03263 -0.9639,1.54038 0,0.29792 0.0646,0.44409 0.29451,0.67518 l 0.29475,0.29518 2.20441,-0.0247 2.20441,-0.0252 0.0269,-0.89115 c 0.0174,-0.57513 -0.0114,-0.93851 -0.0833,-1.02459 -0.0738,-0.0895 -0.316,-0.13347 -0.73515,-0.13347 h -0.62481 l 0.86611,-0.88409 c 0.96569,-0.98586 1.12038,-1.32726 0.84396,-1.86245 -0.29617,-0.57329 -0.3684,-0.58935 -2.67677,-0.58935 z"
         inkscape:export-filename="icon_moon.png"
         inkscape:export-xdpi="60.969349"
         inkscape:export-ydpi="60.969349" /><path
         style="fill:#fff119;stroke:none;stroke-width:0.652837"
         d="m 138.37161,211.55078 c -0.14886,-0.0177 -0.26944,2.6e-4 -0.36425,0.051 -0.44585,0.23897 -0.43556,0.3612 0.16197,1.89992 1.51258,3.89493 1.36561,8.22897 -0.40722,12.00003 -0.91437,1.94522 -0.6643,1.83201 -3.46361,1.57316 -1.62231,-0.15022 -2.48786,-0.16674 -2.63262,-0.0513 -0.46028,0.36948 -0.20034,0.91632 1.02141,2.1479 1.44299,1.4542 1.45881,1.37096 -0.48566,2.5843 -2.48109,1.54824 -5.15429,2.3116 -8.09257,2.3116 -2.18216,0 -3.82401,-0.35891 -6.42571,-1.40525 -0.48526,-0.19518 -0.59834,-0.18773 -0.84253,0.0576 -0.39149,0.39174 -0.23443,0.8708 0.8106,2.47316 2.43661,3.73694 6.02968,6.2334 10.34606,7.18862 2.02216,0.44759 5.72729,0.35837 7.58756,-0.18266 5.93705,-1.72631 10.2177,-6.02878 11.69161,-11.75195 1.74991,-6.79447 -0.91224,-13.87408 -6.67714,-17.75723 -1.07266,-0.72235 -1.78062,-1.08769 -2.2279,-1.13926 z"
         id="path80" /><path
         style="font-variation-settings:normal;opacity:1;fill:none;fill-opacity:1;fill-rule:evenodd;stroke:#000000;stroke-width:1.30573;stroke-linecap:round;stroke-linejoin:round;stroke-miterlimit:4;stroke-dasharray:none;stroke-dashoffset:0;stroke-opacity:1;stop-color:#000000;stop-opacity:1"
         d="m 143.14207,228.48801 c -2.03883,0.8539 -3.73694,-0.37858 -3.66518,-1.91977"
         id="path83"
         sodipodi:nodetypes="cc" /><path
         style="font-variation-settings:normal;opacity:1;vector-effect:none;fill:none;fill-opacity:1;fill-rule:evenodd;stroke:#000000;stroke-width:1.30573;stroke-linecap:round;stroke-linejoin:round;stroke-miterlimit:4;stroke-dasharray:none;stroke-dashoffset:0;stroke-opacity:1;-inkscape-stroke:none;stop-color:#000000;stop-opacity:1"
         d="m 129.17374,232.47954 c 1.03986,1.90978 3.27346,4.13327 5.44306,3.98827"
         id="path84"
         sodipodi:nodetypes="cc" /></g><text
       xml:space="preserve"
       style="font-style:normal;font-variant:normal;font-weight:normal;font-stretch:normal;font-size:4.00355px;line-height:100%;font-family:Calibri;-inkscape-font-specification:'Calibri, Normal';font-variant-ligatures:normal;font-variant-caps:normal;font-variant-numeric:normal;font-variant-east-asian:normal;letter-spacing:0px;word-spacing:0px;writing-mode:lr-tb;fill:#fff991;stroke:none;stroke-width:0.264582px;stroke-linecap:butt;stroke-linejoin:miter;stroke-opacity:1"
       id="text9445"><tspan
         sodipodi:role="line"
         id="tspan72"
         x="0"
         y="0" /></text><text
       xml:space="preserve"
       style="font-style:normal;font-variant:normal;font-weight:normal;font-stretch:normal;font-size:4.00355px;line-height:100%;font-family:Calibri;-inkscape-font-specification:'Calibri, Normal';font-variant-ligatures:normal;font-variant-caps:normal;font-variant-numeric:normal;font-variant-east-asian:normal;letter-spacing:0px;word-spacing:0px;writing-mode:lr-tb;fill:#fff991;stroke:none;stroke-width:0.264582px;stroke-linecap:butt;stroke-linejoin:miter;stroke-opacity:1"
       x="461.91235"
       y="210.98781"
       id="text8821"><tspan
         sodipodi:role="line"
         id="tspan5800"
         x="461.91235"
         y="210.98781" /></text><g
       id="g5"
       transform="translate(-3.6823911,1.3772337)"
       style="font-variation-settings:normal;opacity:1;vector-effect:none;fill:#666666;fill-opacity:1;stroke-width:0.7;stroke-linecap:round;stroke-linejoin:bevel;stroke-miterlimit:4;stroke-dasharray:none;stroke-dashoffset:0;stroke-opacity:1;-inkscape-stroke:none;stop-color:#000000;stop-opacity:1"
       inkscape:export-filename="sync_error.png"
       inkscape:export-xdpi="96"
       inkscape:export-ydpi="96"><rect
         style="font-variation-settings:normal;vector-effect:none;fill:#666666;fill-opacity:1;stroke-width:0.7;stroke-linecap:round;stroke-linejoin:bevel;stroke-miterlimit:4;stroke-dasharray:none;stroke-dashoffset:0;stroke-opacity:1;-inkscape-stroke:none;stop-color:#000000;stop-opacity:1"
         id="rect4"
         width="3.175"
         height="9.260417"
         x="206.55212"
         y="192.95721"
         rx="1.5875"
         ry="1.5875" /><rect
         style="font-variation-settings:normal;vector-effect:none;fill:#666666;fill-opacity:1;stroke-width:0.7;stroke-linecap:round;stroke-linejoin:bevel;stroke-miterlimit:4;stroke-dasharray:none;stroke-dashoffset:0;stroke-opacity:1;-inkscape-stroke:none;stop-color:#000000;stop-opacity:1"
         id="rect5"
         width="3.175"
         height="9.260417"
         x="206.55212"
         y="235.29059"
         rx="1.5875"
         ry="1.5875" /></g><g
       id="g7"
       transform="rotate(90,205.6098,217.60153)"
       style="fill:#666666"><rect
         style="fill:#666666;stroke-width:0.7;stroke-linecap:round;stroke-linejoin:bevel"
         id="rect6"
         width="3.175"
         height="9.260417"
         x="206.55212"
         y="192.95721"
         rx="1.5875"
         ry="1.5875" /><rect
         style="fill:#666666;stroke-width:0.7;stroke-linecap:round;stroke-linejoin:bevel"
         id="rect7"
         width="3.175"
         height="9.260417"
         x="206.55212"
         y="235.29059"
         rx="1.5875"
         ry="1.5875" /></g><g
       id="g10"
       transform="rotate(60,203.58087,215.98435)"
       style="fill:#666666"><rect
         style="fill:#666666;stroke-width:0.7;stroke-linecap:round;stroke-linejoin:bevel"
         id="rect9"
         width="2.1166668"
         height="6.3499999"
         x="206.55214"
         y="191.502"
         rx="1.0583334"
         ry="1.0583334" /><rect
         style="fill:#666666;stroke-width:0.7;stroke-linecap:round;stroke-linejoin:bevel"
         id="rect10"
         width="2.1166668"
         height="6.3499999"
         x="206.55212"
         y="236.74579"
         rx="1.0583334"
         ry="1.0583334" /></g><text
       xml:space="preserve"
       style="font-style:normal;font-variant:normal;font-weight:normal;font-stretch:normal;font-size:40.1739px;line-height:100%;font-family:'Arial Rounded MT Bold';-inkscape-font-specification:'Arial Rounded MT Bold, ';text-decoration-color:#000000;letter-spacing:0px;word-spacing:0px;fill:#800000;stroke-width:5.9032;stroke-linecap:round;stroke-linejoin:bevel"
       x="192.8837"
       y="234.52962"
       id="text16"><tspan
         sodipodi:role="line"
         id="tspan16"
         style="font-style:normal;font-variant:normal;font-weight:normal;font-stretch:normal;font-family:'Arial Rounded MT Bold';-inkscape-font-specification:'Arial Rounded MT Bold, ';fill:#800000;stroke-width:5.9032"
         x="192.8837"
         y="234.52962">?</tspan></text><g
       id="g17"
       transform="rotate(30,200.74842,212.83112)"
       style="fill:#666666"><rect
         style="fill:#666666;stroke-width:0.7;stroke-linecap:round;stroke-linejoin:bevel"
         id="rect16"
         width="2.1166668"
         height="6.3499999"
         x="206.55214"
         y="191.502"
         rx="1.0583334"
         ry="1.0583334" /><rect
         style="fill:#666666;stroke-width:0.7;stroke-linecap:round;stroke-linejoin:bevel"
         id="rect17"
         width="2.1166668"
         height="6.3499999"
         x="206.55212"
         y="236.74579"
         rx="1.0583334"
         ry="1.0583334" /></g><g
       id="g19"
       transform="rotate(-30,211.31928,224.59912)"
       style="fill:#666666"><rect
         style="fill:#666666;stroke-width:0.7;stroke-linecap:round;stroke-linejoin:bevel"
         id="rect18"
         width="2.1166668"
         height="6.3499999"
         x="206.55214"
         y="191.502"
         rx="1.0583334"
         ry="1.0583334" /><rect
         style="fill:#666666;stroke-width:0.7;stroke-linecap:round;stroke-linejoin:bevel"
         id="rect19"
         width="2.1166668"
         height="6.3499999"
         x="206.55212"
         y="236.74579"
         rx="1.0583334"
         ry="1.0583334" /></g><g
       id="g21"
       transform="rotate(-60,208.48683,221.44589)"
       style="fill:#666666"><rect
         style="fill:#666666;stroke-width:0.7;stroke-linecap:round;stroke-linejoin:bevel"
         id="rect20"
         width="2.1166668"
         height="6.3499999"
         x="206.55214"
         y="191.502"
         rx="1.0583334"
         ry="1.0583334" /><rect
         style="fill:#666666;stroke-width:0.7;stroke-linecap:round;stroke-linejoin:bevel"
         id="rect21"
         width="2.1166668"
         height="6.3499999"
         x="206.55212"
         y="236.74579"
         rx="1.0583334"
         ry="1.0583334" /></g><ellipse
       style="font-variation-settings:normal;opacity:1;fill:none;fill-opacity:1;stroke:#666666;stroke-width:1.05539;stroke-linecap:round;stroke-linejoin:bevel;stroke-miterlimit:4;stroke-dasharray:none;stroke-dashoffset:0;stroke-opacity:1"
       id="path22"
       cx="204.37772"
       cy="220.05183"
       rx="28.047302"
       ry="28.047304" /><rect
       style="font-variation-settings:normal;opacity:1;vector-effect:none;fill:#ffffff;fill-opacity:1;stroke:none;stroke-width:1.53026;stroke-linecap:round;stroke-linejoin:round;stroke-miterlimit:4;stroke-dasharray:none;stroke-dashoffset:0;stroke-opacity:1;-inkscape-stroke:none"
       id="rect23"
       width="15.08125"
       height="15.08125"
       x="93.252716"
       y="188.30183" /><rect
       style="font-variation-settings:normal;opacity:1;vector-effect:none;fill:#000000;fill-opacity:1;stroke:none;stroke-width:2.34861;stroke-linecap:round;stroke-linejoin:round;stroke-miterlimit:4;stroke-dasharray:none;stroke-dashoffset:0;stroke-opacity:1;-inkscape-stroke:none"
       id="rect25"
       width="1.9735699"
       height="2.0207367"
       x="13.877712"
       y="188.30183" /><g
       id="g25"
       transform="matrix(1.258621,0,0,1.258621,6.1822768,-38.927394)"
       inkscape:export-filename="icon_sun.png"
       inkscape:export-xdpi="96"
       inkscape:export-ydpi="96"><ellipse
         style="font-variation-settings:normal;opacity:1;vector-effect:none;fill:#fff119;fill-opacity:1;stroke:none;stroke-width:5.49623;stroke-linecap:round;stroke-linejoin:round;stroke-miterlimit:4;stroke-dasharray:none;stroke-dashoffset:0;stroke-opacity:1;-inkscape-stroke:none"
         id="path25"
         cx="31.34021"
         cy="205.76431"
         rx="8.7739792"
         ry="9.1495409" /><path
         style="fill:#0b0708;stroke:none;stroke-width:0.517857"
         d="m 33.569413,205.54933 c -0.664457,-0.38701 -0.920102,-2.02569 -0.442229,-2.83467 0.38382,-0.64975 1.12417,-0.89309 1.730289,-0.5687 0.343184,0.18367 0.795423,1.15113 0.795423,1.70164 0,0.55052 -0.452239,1.51799 -0.795423,1.70166 -0.344819,0.18453 -0.971292,0.18457 -1.28806,7e-5 z"
         id="path61" /><path
         style="fill:#0b0708;stroke:none;stroke-width:0.517857"
         d="m 27.801726,205.54206 c -0.314194,-0.18263 -0.767801,-1.15671 -0.77183,-1.65743 -0.0047,-0.5621 0.389196,-1.43183 0.757376,-1.67307 0.412334,-0.27018 1.011054,-0.27378 1.38997,-0.008 0.452332,0.31682 0.77723,1.31134 0.667486,2.04317 -0.171261,1.14205 -1.192779,1.78991 -2.043002,1.2957 z"
         id="path59" /><path
         style="fill:#0b0708;stroke:none;stroke-width:0.517857"
         d="m 29.502776,211.18226 c -0.903716,-0.33435 -1.841353,-1.09729 -2.448282,-1.99213 -0.517974,-0.76368 -0.55046,-1.34333 -0.07905,-1.41058 0.22736,-0.0324 0.382495,0.1204 0.708481,0.69802 0.80374,1.42415 1.937167,2.06721 3.658975,2.07597 1.743442,0.009 2.976501,-0.70702 3.718366,-2.15879 0.26824,-0.52492 0.398538,-0.65073 0.638596,-0.61658 1.070964,0.15236 -0.530612,2.54594 -2.209141,3.30159 -0.942417,0.42425 -2.976921,0.47655 -3.987944,0.1025 z"
         id="path58" /><path
         id="path34"
         style="fill:#ff8519;stroke-width:0.515777"
         d="m 31.32193,190.41931 c -0.341597,0.0271 -0.693851,0.72189 -1.38595,2.1105 -0.846429,1.69826 -1.207471,2.10516 -1.86773,2.10516 -0.442619,0 -0.829191,-0.20083 -2.507972,-1.30252 -2.114936,-1.38792 -2.223133,-1.31215 -2.062147,1.4431 0.185625,3.17681 0.01103,3.35855 -3.036091,3.16308 -2.038605,-0.13078 -2.413958,-0.0697 -2.413958,0.39265 0,0.14978 0.490418,1.0234 1.089796,1.94138 1.668511,2.55541 1.602961,2.77608 -1.245865,4.20419 -2.511807,1.25917 -2.513914,1.31489 -0.102265,2.52529 2.961873,1.48655 3.020155,1.67053 1.349192,4.25968 -1.605103,2.48711 -1.576588,2.54206 1.235215,2.36577 3.160727,-0.19817 3.317883,-0.041 3.132768,3.13107 -0.06293,1.07838 -0.08293,2.04231 -0.04473,2.14198 0.156621,0.40879 0.824347,0.15788 2.426477,-0.91148 1.747474,-1.16637 2.268821,-1.3237 2.905863,-0.87679 0.169185,0.11869 0.737315,1.07512 1.262636,2.12543 v 2.7e-4 c 0.885413,1.77025 0.980818,1.90628 1.305789,1.86669 0.299794,-0.0366 0.487858,-0.30968 1.29833,-1.88643 0.521244,-1.01406 1.082093,-1.94977 1.246393,-2.07956 0.59577,-0.4706 1.113189,-0.32016 2.878965,0.83732 1.554071,1.01871 1.834854,1.16106 2.211816,1.12194 0.286601,-0.0298 0.318224,-0.42532 0.188295,-2.36071 -0.210204,-3.13117 -0.03427,-3.30762 3.100805,-3.11106 1.066399,0.0668 2.031297,0.0859 2.144441,0.0424 0.429374,-0.16503 0.203988,-0.80546 -0.827733,-2.3519 -1.701462,-2.5503 -1.624801,-2.82828 1.168093,-4.24767 1.880995,-0.95594 2.099976,-1.14885 1.806478,-1.59061 -0.0551,-0.0829 -0.914287,-0.56423 -1.909278,-1.06966 -2.761972,-1.40301 -2.803067,-1.6187 -0.857826,-4.51575 0.85178,-1.26855 1.036262,-1.89792 0.58751,-2.00593 -0.131244,-0.0316 -1.113011,-0.006 -2.181461,0.0563 -3.049856,0.17826 -3.241047,-0.0208 -3.031029,-3.14921 0.07102,-1.05769 0.09257,-2.01782 0.04819,-2.1337 -0.159434,-0.41614 -0.767347,-0.19469 -2.421148,0.88186 -2.521866,1.64162 -2.750509,1.57436 -4.169834,-1.2273 -0.649574,-1.28221 -0.980441,-1.92286 -1.322032,-1.89577 z m 0.232766,6.83085 c 0.60955,0.0141 1.219917,0.0957 1.818724,0.24914 5.416364,1.38747 8.082925,7.34978 5.504384,12.30741 -0.260782,0.5014 -0.866613,1.285 -1.466913,1.89737 -1.181703,1.20547 -2.402518,1.90962 -4.037471,2.32843 -3.576512,0.91617 -7.496102,-0.74348 -9.363679,-3.96465 -1.755627,-3.02807 -1.508637,-6.74823 0.633053,-9.53593 1.641062,-2.13606 4.270522,-3.34305 6.911902,-3.28177 z" /></g><rect
       style="font-variation-settings:normal;opacity:1;vector-effect:none;fill:#f9f9f9;fill-opacity:1;stroke:none;stroke-width:2.34861;stroke-linecap:round;stroke-linejoin:round;stroke-miterlimit:4;stroke-dasharray:none;stroke-dashoffset:0;stroke-opacity:1;-inkscape-stroke:none"
       id="rect26"
       width="12.435425"
       height="12.435471"
       x="13.877712"
       y="188.30183" /><rect
       style="font-variation-settings:normal;opacity:1;vector-effect:none;fill:#ffffff;fill-opacity:1;stroke:none;stroke-width:1.54437;stroke-linecap:round;stroke-linejoin:round;stroke-miterlimit:4;stroke-dasharray:none;stroke-dashoffset:0;stroke-opacity:1;-inkscape-stroke:none"
       id="rect30"
       width="3.1749878"
       height="3.1750031"
       x="172.62772"
       y="188.30183" /></g></svg>
